<svg width="22" height="22" viewBox="0 0 22 22" fill="none" xmlns="http://www.w3.org/2000/svg">
  <path fill-rule="evenodd" clip-rule="evenodd" d="M12.0346 2.0549C14.019 2.2845 15.8707 3.1677 17.298 4.5654C18.7253 5.96309 19.647 7.79585 19.9182 9.77503C20.1893 11.7542 19.7943 13.7673 18.7955 15.4974C18.5817 15.8677 18.1081 15.9946 17.7377 15.7808L13.5843 13.3828C12.494 14.5659 10.6933 14.8803 9.24167 14.0422C7.55967 13.0711 6.98338 10.9203 7.95448 9.23832C8.92559 7.55632 11.0764 6.98002 12.7584 7.95113C14.21 8.78921 14.838 10.5059 14.3586 12.0417L15.411 12.6493C15.677 11.9395 15.769 11.1721 15.6741 10.4124C15.5468 9.39397 15.0903 8.44497 14.3741 7.70978C13.6579 6.97459 12.7212 6.49344 11.7064 6.33951C10.6917 6.18559 9.65439 6.36733 8.7524 6.85707C7.85041 7.34681 7.13305 8.11776 6.70946 9.05264C6.28587 9.98753 6.17923 11.0352 6.40574 12.0362C6.63226 13.0373 7.17955 13.937 7.96435 14.5984C8.74916 15.2599 9.72853 15.6469 10.7535 15.7006C11.1805 15.723 11.5086 16.0874 11.4862 16.5144C11.4638 16.9415 11.0995 17.2695 10.6724 17.2471C9.3105 17.1758 8.00915 16.6615 6.96633 15.7826C5.9235 14.9037 5.19629 13.7082 4.8953 12.378C4.59431 11.0478 4.73602 9.65575 5.29887 8.41351C5.86173 7.17127 6.81492 6.14686 8.01345 5.4961C9.21199 4.84535 10.5903 4.60387 11.9387 4.8084C13.2871 5.01292 14.5317 5.65226 15.4834 6.62916C16.435 7.60606 17.0416 8.86705 17.2107 10.2203C17.3477 11.3157 17.192 12.423 16.766 13.4316L17.8066 14.0323C18.3704 12.7682 18.5731 11.3667 18.3838 9.98521C18.1594 8.34653 17.3962 6.82908 16.2145 5.67185C15.0327 4.51462 13.4996 3.78337 11.8566 3.59327C10.2136 3.40316 8.55402 3.76501 7.13927 4.62181C5.72452 5.47862 4.63497 6.7817 4.04224 8.32582C3.4495 9.86994 3.38726 11.5674 3.86531 13.1508C4.34337 14.7341 5.33455 16.1135 6.68275 17.0716C8.03096 18.0298 9.65958 18.5122 11.3121 18.4429C11.7394 18.425 12.1003 18.7569 12.1182 19.1841C12.1361 19.6114 11.8042 19.9723 11.377 19.9902C9.38104 20.0738 7.41401 19.4912 5.78566 18.334C4.15731 17.1768 2.96017 15.5108 2.38278 13.5984C1.80539 11.686 1.88057 9.63582 2.59647 7.77084C3.31236 5.90586 4.62831 4.33201 6.33704 3.29717C8.04577 2.26233 10.0502 1.82529 12.0346 2.0549ZM11.984 9.29228C11.0427 8.74882 9.8391 9.07133 9.29563 10.0126C8.75217 10.9539 9.07469 12.1576 10.016 12.701C10.9573 13.2445 12.1609 12.922 12.7044 11.9807C13.2479 11.0394 12.9253 9.83575 11.984 9.29228Z" fill="#48494A"/>
</svg>
