<svg width="22" height="22" viewBox="0 0 22 22" fill="none" xmlns="http://www.w3.org/2000/svg">
<path fill-rule="evenodd" clip-rule="evenodd" d="M7.766 2.2H14.234C15.0452 2.19999 15.7026 2.19998 16.2355 2.24353C16.7853 2.28844 17.2727 2.38364 17.7252 2.61417C18.4402 2.97849 19.0215 3.55982 19.3858 4.27483C19.6164 4.72728 19.7116 5.21473 19.7565 5.76446C19.8 6.29743 19.8 6.95479 19.8 7.76602V14.234C19.8 15.0452 19.8 15.7026 19.7565 16.2355C19.7116 16.7853 19.6164 17.2727 19.3858 17.7252C19.0215 18.4402 18.4402 19.0215 17.7252 19.3858C17.2727 19.6164 16.7853 19.7116 16.2355 19.7565C15.7026 19.8 15.0452 19.8 14.234 19.8H7.76602C6.95479 19.8 6.29743 19.8 5.76446 19.7565C5.21473 19.7116 4.72728 19.6164 4.27484 19.3858C3.55982 19.0215 2.97849 18.4402 2.61417 17.7252C2.38364 17.2727 2.28844 16.7853 2.24353 16.2355C2.19998 15.7026 2.19999 15.0452 2.2 14.234V7.766C2.19999 6.95478 2.19998 6.29742 2.24353 5.76446C2.28844 5.21473 2.38364 4.72728 2.61417 4.27483C2.97849 3.55982 3.55982 2.97849 4.27484 2.61417C4.72728 2.38364 5.21473 2.28844 5.76446 2.24353C6.29742 2.19998 6.95478 2.19999 7.766 2.2ZM5.89475 3.83821C5.44397 3.87504 5.19051 3.94333 5.00122 4.03978C4.58726 4.2507 4.25071 4.58726 4.03978 5.00122C3.94334 5.19051 3.87505 5.44397 3.83821 5.89475C3.80062 6.35487 3.8 6.94672 3.8 7.8V14.2C3.8 15.0533 3.80062 15.6451 3.83821 16.1052C3.87505 16.556 3.94334 16.8095 4.03978 16.9988C4.25071 17.4127 4.58726 17.7493 5.00122 17.9602C5.19051 18.0567 5.44397 18.125 5.89475 18.1618C6.35487 18.1994 6.94672 18.2 7.8 18.2H12.7487V9.6157V3.8H7.8C6.94672 3.8 6.35487 3.80062 5.89475 3.83821ZM14.3487 3.80001V8.82286H18.2V7.8C18.2 6.94672 18.1994 6.35487 18.1618 5.89475C18.125 5.44397 18.0567 5.19051 17.9602 5.00122C17.7493 4.58726 17.4127 4.2507 16.9988 4.03978C16.8095 3.94333 16.556 3.87504 16.1052 3.83821C15.6723 3.80284 15.1228 3.8002 14.3487 3.80001ZM18.2 10.4229H14.3345L14.3487 18.2H14.2C15.0533 18.2 15.6451 18.1994 16.1052 18.1618C16.556 18.125 16.8095 18.0567 16.9988 17.9602C17.4127 17.7493 17.7493 17.4127 17.9602 16.9988C18.0567 16.8095 18.125 16.556 18.1618 16.1052C18.1994 15.6451 18.2 15.0533 18.2 14.2V10.4229Z" fill="#48494A"/>
</svg>
