<svg width="38" height="38" viewBox="0 0 38 38" fill="none" xmlns="http://www.w3.org/2000/svg">
<rect width="38" height="38" rx="12" fill="#EEFDF6"/>
<path d="M22.9943 25.2941C21.5975 26.1805 19.9454 26.5771 18.2984 26.4215C16.6514 26.2658 15.1029 25.5666 13.897 24.4341C12.691 23.3016 11.896 21.8001 11.6372 20.1661C11.3784 18.5321 11.6705 16.8585 12.4675 15.4087C13.2645 13.959 14.5211 12.8156 16.0394 12.1586C17.5577 11.5015 19.2514 11.3682 20.8538 11.7796C22.4562 12.1911 23.8762 13.1238 24.8902 14.4311C25.9042 15.7383 26.4545 17.3456 26.4545 19" stroke="#246042" stroke-width="1.45455" stroke-linecap="round" stroke-linejoin="round"/>
<path d="M21.1461 23.212C20.2283 23.6797 19.1829 23.8347 18.1689 23.6537C17.1549 23.4726 16.2278 22.9653 15.5286 22.2089C14.8294 21.4525 14.3964 20.4885 14.2954 19.4634C14.1945 18.4383 14.4311 17.4083 14.9693 16.53C15.5075 15.6518 16.3178 14.9733 17.277 14.5979C18.2362 14.2225 19.2917 14.1706 20.2831 14.4502C21.2745 14.7298 22.1474 15.3256 22.7691 16.1468C23.3908 16.9681 23.7272 17.97 23.7272 19" stroke="#246042" stroke-width="1.45455" stroke-linecap="round" stroke-linejoin="round"/>
<circle cx="18.9999" cy="19" r="2" transform="rotate(90 18.9999 19)" stroke="#246042" stroke-width="1.45455"/>
<path d="M21.7272 19L25.8181 19" stroke="#246042" stroke-width="1.45455" stroke-linecap="square" stroke-linejoin="round"/>
</svg>
