<svg width="20" height="20" viewBox="0 0 20 20" fill="none" xmlns="http://www.w3.org/2000/svg">
<path fill-rule="evenodd" clip-rule="evenodd" d="M7.50005 2.77778C7.50005 2.31754 7.12696 1.94444 6.66672 1.94444C6.20648 1.94444 5.83339 2.31754 5.83339 2.77778V3.22961C5.5602 3.29356 5.30147 3.38303 5.05287 3.50969C4.26886 3.90917 3.63144 4.54659 3.23197 5.33059C2.98048 5.82417 2.87564 6.35766 2.82601 6.96503C2.77782 7.55493 2.77782 8.28339 2.77783 9.18654V10.8134C2.77782 11.7166 2.77782 12.4451 2.82601 13.035C2.87564 13.6423 2.98048 14.1758 3.23197 14.6694C3.63144 15.4534 4.26886 16.0908 5.05287 16.4903C5.54645 16.7418 6.07994 16.8466 6.68731 16.8963C7.27721 16.9445 8.00566 16.9445 8.90881 16.9444L12.6682 16.9444C13.0262 16.9445 13.27 16.9445 13.4849 16.9223C15.4465 16.7191 16.9969 15.1686 17.2001 13.2071C17.2224 12.9922 17.2223 12.7484 17.2223 12.3904L17.2223 9.18653C17.2223 8.28338 17.2223 7.55493 17.1741 6.96503C17.1245 6.35766 17.0196 5.82417 16.7681 5.33059C16.3687 4.54659 15.7312 3.90917 14.9472 3.50969C14.6986 3.38303 14.4399 3.29356 14.1667 3.22961V2.77778C14.1667 2.31754 13.7936 1.94444 13.3334 1.94444C12.8732 1.94444 12.5001 2.31754 12.5001 2.77778V3.0651C12.0851 3.05555 11.6179 3.05555 11.0913 3.05555H8.90883C8.38224 3.05555 7.91503 3.05555 7.50005 3.0651V2.77778ZM5.80952 4.9947C6.02899 4.88288 6.31873 4.80607 6.82303 4.76487C7.33707 4.72287 7.99733 4.72222 8.9445 4.72222H11.0556C12.0028 4.72222 12.663 4.72287 13.1771 4.76487C13.6814 4.80607 13.9711 4.88288 14.1906 4.9947C14.661 5.23439 15.0434 5.61684 15.2831 6.08724C15.3949 6.30671 15.4718 6.59645 15.513 7.10075C15.5294 7.30137 15.5394 7.52425 15.5457 7.77778H4.45445C4.46066 7.52425 4.47075 7.30137 4.48715 7.10075C4.52835 6.59645 4.60516 6.30671 4.71698 6.08724C4.95667 5.61684 5.33912 5.23439 5.80952 4.9947ZM4.4445 9.44444V10.7778C4.4445 11.7249 4.44515 12.3852 4.48715 12.8992C4.52835 13.4036 4.60516 13.6933 4.71698 13.9128C4.95667 14.3832 5.33912 14.7656 5.80952 15.0053C6.02899 15.1171 6.31873 15.1939 6.82303 15.2351C7.33707 15.2771 7.99733 15.2778 8.9445 15.2778H12.6175C13.0452 15.2778 13.1955 15.2767 13.3132 15.2645C14.4901 15.1426 15.4204 14.2123 15.5423 13.0354C15.5545 12.9177 15.5556 12.7674 15.5556 12.3397V9.44444H4.4445Z" fill="#5F6061"/>
</svg>
