<svg width="22" height="22" viewBox="0 0 22 22" fill="none" xmlns="http://www.w3.org/2000/svg">
<path fill-rule="evenodd" clip-rule="evenodd" d="M14.13 4.53195C13.1711 3.87454 12.0295 3.53576 10.8672 3.56366C9.76452 3.5893 8.73968 3.94301 7.88446 4.53125C7.40867 4.85851 6.9856 5.25815 6.63155 5.71352C6.27722 6.16925 5.99263 6.68001 5.79328 7.22883C5.57737 7.82329 5.46109 8.46336 5.46477 9.12898C5.46928 9.9642 5.66275 10.7877 6.03066 11.5375C6.39836 12.2869 6.93079 12.9434 7.58809 13.4579C7.91233 13.7097 8.17618 14.0318 8.35786 14.4033C8.5391 14.7739 8.63303 15.1811 8.63244 15.5936V15.9016H13.3678V16.068C13.3678 16.0239 13.3853 15.9816 13.4165 15.9503C13.4477 15.9191 13.4901 15.9016 13.5342 15.9016H13.3678V15.5893C13.3696 15.1758 13.4655 14.7681 13.6482 14.3971C13.8305 14.0269 14.0945 13.7029 14.4203 13.4496C14.8802 13.0881 15.2771 12.6584 15.5988 12.1782C15.916 11.7047 16.1601 11.1822 16.3196 10.6278C16.641 9.51048 16.6025 8.32033 16.2095 7.22616C15.8165 6.13199 15.0889 5.18935 14.13 4.53195ZM10.8292 1.96411C12.3273 1.92822 13.7987 2.36493 15.0347 3.21229C16.2708 4.05972 17.2087 5.27483 17.7153 6.68528C18.2219 8.09572 18.2716 9.62988 17.8572 11.0701C17.6516 11.7848 17.3369 12.4584 16.928 13.0687C16.5129 13.6884 16.0007 14.2429 15.4069 14.7092L15.4033 14.712C15.2684 14.8167 15.159 14.9508 15.0836 15.104C15.0083 15.2568 14.9687 15.4247 14.9678 15.595V16.068C14.9678 16.4482 14.8167 16.8129 14.5479 17.0817C14.279 17.3505 13.9144 17.5016 13.5342 17.5016H8.46597C8.08578 17.5016 7.72115 17.3505 7.45231 17.0817C7.18347 16.8129 7.03244 16.4482 7.03244 16.068L7.03244 15.5916C7.03272 15.4234 6.99444 15.2573 6.92054 15.1062C6.84731 14.9565 6.74029 14.8252 6.60615 14.7212L6.60333 14.719C5.75536 14.0556 5.06852 13.2089 4.59425 12.2423C4.12001 11.2758 3.87063 10.2144 3.8648 9.13784M10.8292 1.96411C9.40293 1.99733 8.07863 2.45576 6.97773 3.21298C6.36602 3.63373 5.82288 4.14692 5.36842 4.73143C4.91349 5.31654 4.54682 5.97392 4.28941 6.6826C4.01031 7.451 3.86005 8.27888 3.8648 9.13784M7.03244 19.2357C7.03244 18.7939 7.39061 18.4357 7.83244 18.4357H14.1678C14.6096 18.4357 14.9678 18.7939 14.9678 19.2357C14.9678 19.6775 14.6096 20.0357 14.1678 20.0357H7.83244C7.39061 20.0357 7.03244 19.6775 7.03244 19.2357Z" fill="#48494A"/>
</svg>
