<svg width="22" height="22" viewBox="0 0 22 22" fill="none" xmlns="http://www.w3.org/2000/svg">
<path fill-rule="evenodd" clip-rule="evenodd" d="M11 3.59689C6.91137 3.59689 3.59688 6.91138 3.59688 11C3.59688 15.0886 6.91137 18.4031 11 18.4031C15.0886 18.4031 18.4031 15.0886 18.4031 11C18.4031 6.91138 15.0886 3.59689 11 3.59689ZM1.99688 11C1.99688 6.02772 6.02771 1.99689 11 1.99689C15.9723 1.99689 20.0031 6.02772 20.0031 11C20.0031 15.9723 15.9723 20.0031 11 20.0031C6.02771 20.0031 1.99688 15.9723 1.99688 11ZM11.0002 7.03236C11.442 7.03236 11.8002 7.39053 11.8002 7.83236V10.2004H14.1678C14.6096 10.2004 14.9678 10.5585 14.9678 11.0004C14.9678 11.4422 14.6096 11.8004 14.1678 11.8004H11.8002V14.1677C11.8002 14.6095 11.442 14.9677 11.0002 14.9677C10.5583 14.9677 10.2002 14.6095 10.2002 14.1677V11.8004H7.83244C7.39061 11.8004 7.03244 11.4422 7.03244 11.0004C7.03244 10.5585 7.39061 10.2004 7.83244 10.2004H10.2002V7.83236C10.2002 7.39053 10.5583 7.03236 11.0002 7.03236Z" fill="#48494A"/>
</svg>
