<svg width="22" height="22" viewBox="0 0 22 22" fill="none" xmlns="http://www.w3.org/2000/svg">
<path fill-rule="evenodd" clip-rule="evenodd" d="M12.9418 4.07519C11.9446 3.28599 10.5057 3.28599 9.50858 4.0752L5.21691 7.47187C4.59027 7.96782 4.23351 8.70404 4.23351 9.47398V15.9226C4.23351 17.3337 5.42049 18.5166 6.93351 18.5166H15.5168C17.0299 18.5166 18.2168 17.3337 18.2168 15.9226V9.47398C18.2168 8.70404 17.8601 7.96782 17.2334 7.47186L12.9418 4.07519ZM8.59836 2.92514C10.1289 1.71379 12.3214 1.71378 13.852 2.92514L18.1437 6.32181C19.1139 7.08971 19.6835 8.24584 19.6835 9.47398V15.9226C19.6835 18.1868 17.7962 19.9833 15.5168 19.9833H6.93351C4.65416 19.9833 2.76684 18.1868 2.76684 15.9226V9.47398C2.76684 8.24584 3.33647 7.08971 4.3067 6.32181L8.59836 2.92514ZM7.97506 15.5833C7.97506 15.1783 8.30338 14.85 8.70839 14.85H13.7C14.105 14.85 14.4333 15.1783 14.4333 15.5833C14.4333 15.9883 14.105 16.3166 13.7 16.3166H8.70839C8.30338 16.3166 7.97506 15.9883 7.97506 15.5833Z" fill="#1B1C1E"/>
</svg>
